# xmcd
# 
# Track frame offsets:
#     150
#     22242
#     43395
#     70437
#     90977
#     109895
#     135080
#     158140
#     181182
#     203612
#     226475
#     253890
# 
# Disc length: 3693
# 
# Revision: 8
# Processed by: cddbd v1.5.2PL0 Copyright (c) Steve Scherf et al.
# Submitted via: fre:ac v1.0.17
# 
DISCID=a20e6b0c
DTITLE=Riot - Nightbreaker (SRCS_6733)
DYEAR=1993
DGENRE=Hard Rock
TTITLE0=Soldier
TTITLE1=Destiny
TTITLE2=Burn
TTITLE3=In Your Eyes
TTITLE4=Nightbreake
TTITLE5=Medicine Man
TTITLE6=Silent Scream
TTITLE7=Magic Maker
TTITLE8=A Whiter Shade Of Pale
TTITLE9=Babylon
TTITLE10=Outlaw
TTITLE11=Black Mountain Woman
EXTD=YEAR: 1993
EXTT0=
EXTT1=
EXTT2=
EXTT3=
EXTT4=
EXTT5=
EXTT6=
EXTT7=
EXTT8=
EXTT9=
EXTT10=
EXTT11=
PLAYORDER=
